PathFileType	3	(X/Y/Z)	D:\Vicon Database\Healthy Subjects\S0040\Jan. 30, 2020\Force Plate Walk 6.trc
DataRate	CameraRate	NumFrames	NumMarkers	Units	OrigDataRate	OrigDataStartFrame	OrigNumFrames
100.0	100.0	6	53	mm	100.0	309	350	
Frame#	Time	sternum_cluster1			sternum_cluster2			sternum_cluster3			left_asis			right_asis			left_psis			right_psis			sacrum_cluster1			sacrum_cluster2			sacrum_cluster3			left_lat_femoral_epicondyle			left_anterior_thigh15			left_anterior_thigh25			left_anterior_thigh50			left_lateral_thigh25			left_lateral_thigh50			left_thigh_cluster1			left_thigh_cluster2			left_thigh_cluster3			left_fibular_head			left_tibial_tuberosity			left_anterior_shank30			left_lateral_malleolus			left_shank_cluster1			left_shank_cluster2			left_shank_cluster3			left_heel			left_metatarsal2			left_foot_cluster1			left_foot_cluster2			left_foot_cluster3			right_lat_femoral_epicondyle			right_anterior_thigh15			right_anterior_thigh25			right_anterior_thigh50			right_lateral_thigh25			right_lateral_thigh50			right_thigh_cluster1			right_thigh_cluster2			right_thigh_cluster3			right_fibular_head			right_tibial_tuberosity			right_lateral_distal_shank			right_anterior_shank30			right_lateral_malleolus			right_shank_cluster1			right_shank_cluster2			right_shank_cluster3			right_heel			right_metatarsal2			right_foot_cluster1			right_foot_cluster2			right_foot_cluster3			
		X1	Y1	Z1	X2	Y2	Z2	X3	Y3	Z3	X4	Y4	Z4	X5	Y5	Z5	X6	Y6	Z6	X7	Y7	Z7	X8	Y8	Z8	X9	Y9	Z9	X10	Y10	Z10	X11	Y11	Z11	X12	Y12	Z12	X13	Y13	Z13	X14	Y14	Z14	X15	Y15	Z15	X16	Y16	Z16	X17	Y17	Z17	X18	Y18	Z18	X19	Y19	Z19	X20	Y20	Z20	X21	Y21	Z21	X22	Y22	Z22	X23	Y23	Z23	X24	Y24	Z24	X25	Y25	Z25	X26	Y26	Z26	X27	Y27	Z27	X28	Y28	Z28	X29	Y29	Z29	X30	Y30	Z30	X31	Y31	Z31	X32	Y32	Z32	X33	Y33	Z33	X34	Y34	Z34	X35	Y35	Z35	X36	Y36	Z36	X37	Y37	Z37	X38	Y38	Z38	X39	Y39	Z39	X40	Y40	Z40	X41	Y41	Z41	X42	Y42	Z42	X43	Y43	Z43	X44	Y44	Z44	X45	Y45	Z45	X46	Y46	Z46	X47	Y47	Z47	X48	Y48	Z48	X49	Y49	Z49	X50	Y50	Z50	X51	Y51	Z51	X52	Y52	Z52	X53	Y53	Z53	
309	3.08	3152.6899	1437.6927	-112.10362	3141.8545	1408.8857	-103.1773	3143.0313	1411.4515	-141.25978	3175.7815	1064.1732	5.2553334	3178.7769	1056.5659	-245.42853	3343.2529	1079.7395	-41.699043	3345.1321	1075.9807	-160.25568				3357.4036	1109.5225	-121.3278	3360.8623	1106.8597	-81.826019	3128.7588	546.20001	21.873543	3057.5947	645.31726	-30.735912	3061.9404	731.15161	-12.416626	3097.8076	863.34918	7.9382539	3165.7371	694.20667	48.209339	3194.7034	839.80005	77.607864	3187.4749	792.84106	82.392479	3183.0818	763.76105	78.619125	3149.0781	780.15948	81.787903	3114.281	467.78366	26.118397	3063.7781	462.64435	-33.600121	3100.9707	210.37337	-48.449566	3159.3633	101.12219	-18.232168	3069.8289	405.99414	-64.050362	3065.7402	378.05258	-56.672848	3084.3867	380.29425	-90.468857	3233.4666	67.193092	-53.661079	3014.9404	75.175941	-56.023914	3076.9233	121.00871	-50.348564	3052.3328	105.68855	-40.038517	3048.364	110.98374	-77.834656	3238.4346	510.58377	-274.43481	3140.1011	584.32422	-226.89561	3124.4248	669.49329	-219.8925	3134.114	803.0285	-216.43335	3230.4851	665.14313	-291.4144	3236.9907	811.8819	-303.88983	3244.1052	763.05396	-313.19617	3232.7231	737.06909	-313.4007	3269.771	734.09814	-304.32883	3282.2773	467.34488	-279.48102	3243.762	420.04926	-238.27203	3497.0522	312.73035	-251.49551	3454.3489	279.93579	-212.01204	3572.793	246.0119	-235.55972	3297.4907	373.88174	-181.0058	3321.8496	361.63177	-173.23804	3313.502	348.32141	-207.72375	3630.1326	302.19772	-195.50496	3552.3926	96.860008	-195.0657	3524.4312	164.59795	-195.31227	3531.8884	136.7758	-185.7267	3527.1809	139.21286	-223.43373
310	3.09	3139.853	1439.7515	-112.0172	3129.0769	1410.7356	-103.29163	3130.4375	1413.4714	-141.38986	3162.3428	1065.8046	5.1646972	3166.8757	1058.325	-245.69919	3330.175	1081.4812	-40.797642	3332.7349	1077.1691	-159.34192				3344.6628	1110.9565	-120.36409	3347.9258	1108.4731	-80.850586	3123.3936	545.80627	22.855782	3050.6504	643.72119	-29.725777	3053.3376	729.38654	-11.424747	3086.8379	862.46509	8.6790829	3157.8652	694.55695	48.891483	3183.7463	840.77698	78.151733	3175.9575	794.24072	84.171242	3173.8613	764.43121	78.946671	3140.0095	780.36884	82.772179	3110.1853	467.26065	27.226002	3061.4895	461.38452	-32.800823	3099.542	209.77376	-47.859997	3159.1611	101.1165	-18.093519	3066.5002	404.6803	-63.045017	3062.6604	377.12665	-55.754452	3081.1694	379.56793	-89.519478	3232.9885	66.728386	-53.417545	3014.7559	74.605217	-55.976845	3076.6851	120.73238	-50.174606	3052.3057	105.21527	-39.90514	3048.1223	110.66134	-77.719101	3212.676	512.83032	-274.55444	3116.6152	588.60608	-225.82858	3104.531	673.64276	-218.77536	3117.7529	806.86115	-216.104	3209.9646	666.71881	-290.71716	3221.0232	813.271	-303.18323	3227.4041	764.06787	-312.48557	3214.718	738.54779	-313.57938	3251.8254	735.15216	-303.3815	3255.2288	469.09103	-279.04208	3216.7034	422.27179	-237.466	3470.2749	315.75882	-250.69177	3427.5256	283.19843	-211.21649	3545.738	248.50867	-234.6338	3270.79	376.45425	-179.81107	3295.5393	364.38736	-172.03569	3286.6245	350.96649	-205.81075	3605.7659	303.28726	-196.30841	3520.6111	101.19573	-191.61818	3495.7173	169.92708	-192.46863	3502.2646	141.7643	-182.84653	3496.3123	143.51634	-220.50552
311	3.1	3127.0771	1441.5249	-112.16059	3116.2507	1412.6613	-103.5809	3118.0217	1415.1443	-141.56424	3148.9956	1067.5085	5.0101132	3155.1433	1060.5122	-246.0634	3317.2302	1083.4033	-39.864136	3320.5413	1078.8212	-158.39363				3332.0752	1112.7229	-119.35001	3334.9651	1110.2581	-79.843277	3117.8169	546.22296	23.754023	3044.4028	642.51062	-29.529718	3044.9631	728.22443	-10.657807	3076.1951	861.85541	9.3875246	3150.2329	695.2937	49.64576	3173.4973	841.69489	78.641571	3165.0149	795.93671	85.300278	3164.7959	765.3089	79.594826	3131.0059	780.56158	83.322166	3106.2783	466.80063	28.021065	3058.1064	460.55283	-32.067642	3098.3274	209.32849	-47.51025	3158.9392	101.14249	-17.904631	3063.1838	404.17538	-62.187794	3059.8796	376.4722	-54.976028	3078.2354	379.28085	-88.746002	3232.9028	66.87767	-53.344391	3014.6208	74.179138	-55.830173	3076.3909	120.55731	-50.195572	3052.1399	105.0718	-39.961014	3047.9819	110.45747	-77.557144	3186.771	515.39105	-274.05554	3093.7734	593.39905	-224.82204	3084.4199	678.69568	-217.81537	3101.4995	811.36237	-216.01073	3189.8193	668.99762	-289.77432	3205.9954	815.10089	-302.35352	3209.5496	765.60083	-311.69601	3197.4421	740.38739	-312.44373	3233.5198	735.72668	-302.47177	3228.2046	471.19876	-278.45575	3189.2852	424.77625	-236.37978	3442.3596	317.36414	-249.97807	3399.6709	284.87241	-209.76939	3517.905	249.56544	-233.58243	3244.5959	379.74777	-178.5807	3268.9622	367.27454	-170.16608	3260.0132	353.22757	-204.24352	3580.4114	302.4924	-196.56381	3487.5273	104.0463	-189.08658	3465.5837	173.69971	-190.20042	3470.9365	146.04857	-180.08237	3465.3108	146.9162	-217.84116
312	3.11	3114.303	1443.3224	-112.1721	3103.5093	1414.6212	-103.80424	3105.4607	1417.236	-141.85594	3135.6086	1069.1989	4.8461108	3143.5403	1062.7705	-246.23656	3304.3555	1085.4607	-38.943527	3308.4463	1080.9298	-157.38385				3319.644	1114.8785	-118.27388	3322.0227	1112.2693	-78.761345	3113.0818	546.48474	24.290066	3038.1184	641.4884	-29.48101	3036.9294	727.43085	-10.320327	3065.7739	861.28027	9.6333399	3142.7893	696.28485	50.043777	3163.2393	843.02026	78.902199	3158.655	796.11615	84.357567	3156.5212	766.57507	79.894226	3122.2271	781.66077	83.658798	3102.8376	466.65125	28.535011	3054.864	459.75449	-31.619102	3097.2888	209.1131	-47.327785	3158.6509	101.28256	-17.79994	3060.3357	403.56525	-61.631344	3057.4683	375.86932	-54.379459	3076.0515	378.64944	-88.256401	3232.8318	67.179497	-53.280834	3014.4355	73.775734	-55.944454	3076.1343	120.30315	-50.033398	3051.9084	104.93302	-39.837639	3047.8003	110.25958	-77.3899	3161.4163	518.63239	-272.95404	3070.5791	599.03778	-223.64656	3064.5271	684.17816	-217.21973	3085.4688	816.08112	-216.06158	3169.8633	671.68207	-288.78152	3190.9626	817.33801	-301.53888	3192.1038	767.75983	-310.93887	3179.2407	742.45367	-311.58405	3215.8486	737.53473	-301.18689	3201.3091	473.67139	-278.10953	3162.0247	427.97781	-235.21132	3413.5964	317.5705	-249.41196	3370.6794	286.58688	-208.23473	3489.3943	248.88348	-232.21146	3217.6499	384.13846	-176.57303	3241.9812	371.57465	-169.45018	3231.9478	356.45209	-201.76617	3554.1963	299.79794	-196.09227	3452.6909	105.67395	-186.73988	3433.6016	176.41786	-188.98814	3438.1406	147.4837	-178.61124	3433.1553	148.98241	-216.14302
313	3.12	3101.6523	1445.2559	-112.14567	3090.8428	1416.7079	-104.12981	3093.0708	1419.3695	-142.16756	3122.4272	1071.0304	4.809269	3131.9807	1065.2426	-246.3222	3291.5391	1087.6168	-37.996387	3296.269	1083.2245	-156.3694				3307.2092	1117.161	-117.16821	3309.178	1114.3143	-77.652405	3109.3826	546.79584	24.971582	3032.0269	640.57355	-29.569014	3029.158	726.55103	-10.161184	3055.499	861.29822	10.091496	3135.5181	697.52228	50.391914	3153.3865	844.52081	78.990738	3150.1804	797.68805	84.794273	3148.0469	768.0517	80.179619	3113.2512	782.53802	83.516083	3099.7651	466.60577	28.876755	3052.3953	458.59232	-31.552103	3096.2969	209.05992	-47.147282	3158.4033	101.46258	-17.72998	3056.9658	404.17392	-60.800442	3055.4341	375.56494	-54.113556	3074.0471	378.56369	-87.827133	3232.6875	67.445801	-53.218426	3014.2864	73.321938	-55.913342	3076.2712	120.03046	-50.070457	3051.7998	104.70906	-39.772701	3047.6282	110.0806	-77.356422	3136.3677	522.1817	-272.37314	3048.2908	604.91278	-222.73289	3044.7234	690.05957	-216.65039	3069.4531	821.23444	-215.99614	3149.8057	674.56531	-286.6311	3175.8962	819.92822	-300.91461	3175.2888	769.89032	-310.03433	3162.6467	745.36511	-311.74866	3198.1331	739.26825	-300.00247	3174.6675	475.81256	-277.35681	3134.8904	431.57751	-233.87363	3384.0808	316.38657	-248.62601	3340.6711	286.66129	-206.58733	3460.5125	248.4552	-232.11926	3190.1384	388.99295	-173.79613	3215.1926	375.9166	-166.74388	3204.6079	359.49231	-199.30853	3527.2471	295.12073	-195.02388	3416.9263	105.90505	-185.21716	3401.3142	177.57994	-187.99509	3404.5115	148.60785	-177.17966	3400.0168	149.47327	-215.11339
314	3.13	3088.7754	1447.2321	-111.8385	3077.635	1418.7166	-104.52967	3080.6721	1421.3027	-142.34151	3109.136	1073.0875	5.0839024	3120.2271	1067.9767	-246.2025	3278.677	1089.6711	-37.182026	3284.03	1085.5034	-155.41486				3294.7227	1119.3286	-116.04112	3296.4097	1116.3923	-76.580406	3105.4023	547.19946	25.167196	3026.1987	639.65692	-29.400408	3021.5645	725.74573	-10.294485	3045.3462	860.85925	10.076999	3128.2678	698.71936	50.712524	3143.6558	845.70734	79.163216	3140.7637	799.18237	84.657021	3139.5667	769.56555	80.627098	3104.5547	783.41815	83.458038	3097.0215	466.65649	29.114906	3049.8147	458.27792	-31.522692	3095.4849	209.02689	-46.96566	3158.144	101.60111	-17.730307	3054.2793	404.39038	-60.469952	3053.5779	375.28455	-54.000721	3072.27	378.42023	-87.683113	3232.6182	67.700798	-53.23819	3014.1294	73.092087	-56.059761	3075.7852	119.96089	-50.000912	3051.6157	104.51894	-39.815624	3047.4753	109.82733	-77.122192	3111.6931	525.97815	-271.86136	3026.4353	610.9679	-221.96101	3025.238	696.27747	-216.39909	3053.688	826.49945	-216.16371	3130.502	677.74408	-285.50647	3160.9414	822.62292	-300.40353	3158.4836	771.97845	-309.45255	3145.2888	747.85443	-310.71753	3180.6321	741.16742	-298.79166	3148.1511	478.03986	-276.75745	3107.99	435.09238	-232.3895	3354.2781	314.18271	-248.173	3310.7319	286.69934	-204.12607	3430.3938	244.7394	-230.26932	3162.8281	393.92505	-171.88921	3188.2063	380.09555	-164.73303	3176.0244	363.29507	-196.00273	3499.6208	288.65036	-193.35509	3379.8318	105.42843	-184.1429	3367.8962	177.68291	-187.2953	3368.1833	149.6494	-176.72342	3365.2852	149.68207	-214.41077
